<svg xmlns="http://www.w3.org/2000/svg" xmlns:xlink="http://www.w3.org/1999/xlink" id="body" width="793" height="890"><g transform="matrix(1.333333 0 0 1.333333 0 0)"><g><g clip-path="url(#1)"><g clip-path="url(#2)"></g><g clip-path="url(#3)"><g clip-path="url(#4)"></g><g clip-path="url(#5)"></g></g><g clip-path="url(#6)"><g clip-path="url(#7)"></g><g clip-path="url(#8)"></g></g><path transform="matrix(1 0 0 -1 0 841)" d="M183.89 696.7L184.37 696.7L184.37 696.7L184.37 697.18L184.37 697.18L183.89 697.18z" stroke="none" fill="#000000" fill-rule="evenodd" /><path transform="matrix(1 0 0 -1 0 841)" d="M183.89 696.7L184.37 696.7L184.37 696.7L184.37 697.18L184.37 697.18L183.89 697.18z" stroke="none" fill="#000000" fill-rule="evenodd" /><path transform="matrix(1 0 0 -1 0 841)" d="M184.37 696.7L297.31 696.7L297.31 696.7L297.31 697.18L297.31 697.18L184.37 697.18z" stroke="none" fill="#000000" fill-rule="evenodd" /><path transform="matrix(1 0 0 -1 0 841)" d="M297.31 696.7L297.79 696.7L297.79 696.7L297.79 697.18L297.79 697.18L297.31 697.18z" stroke="none" fill="#000000" fill-rule="evenodd" /><path transform="matrix(1 0 0 -1 0 841)" d="M297.79 696.7L410.73 696.7L410.73 696.7L410.73 697.18L410.73 697.18L297.79 697.18z" stroke="none" fill="#000000" fill-rule="evenodd" /><path transform="matrix(1 0 0 -1 0 841)" d="M410.74 696.7L411.22 696.7L411.22 696.7L411.22 697.18L411.22 697.18L410.74 697.18z" stroke="none" fill="#000000" fill-rule="evenodd" /><path transform="matrix(1 0 0 -1 0 841)" d="M410.74 696.7L411.22 696.7L411.22 696.7L411.22 697.18L411.22 697.18L410.74 697.18z" stroke="none" fill="#000000" fill-rule="evenodd" /><path transform="matrix(1 0 0 -1 0 841)" d="M183.89 681.46L184.37 681.46L184.37 681.46L184.37 696.7L184.37 696.7L183.89 696.7z" stroke="none" fill="#000000" fill-rule="evenodd" /><path transform="matrix(1 0 0 -1 0 841)" d="M297.31 681.46L297.79 681.46L297.79 681.46L297.79 696.7L297.79 696.7L297.31 696.7z" stroke="none" fill="#000000" fill-rule="evenodd" /><path transform="matrix(1 0 0 -1 0 841)" d="M410.74 681.46L411.22 681.46L411.22 681.46L411.22 696.7L411.22 696.7L410.74 696.7z" stroke="none" fill="#000000" fill-rule="evenodd" /><g clip-path="url(#9)"><g clip-path="url(#10)"></g><g clip-path="url(#11)"></g><g clip-path="url(#12)"></g><g clip-path="url(#13)"></g></g><g clip-path="url(#14)"><g clip-path="url(#15)"></g><g clip-path="url(#16)"></g><g clip-path="url(#17)"></g><g clip-path="url(#18)"></g></g><path transform="matrix(1 0 0 -1 0 841)" d="M183.89 680.98L184.37 680.98L184.37 680.98L184.37 681.46L184.37 681.46L183.89 681.46z" stroke="none" fill="#000000" fill-rule="evenodd" /><path transform="matrix(1 0 0 -1 0 841)" d="M184.37 680.98L297.31 680.98L297.31 680.98L297.31 681.46L297.31 681.46L184.37 681.46z" stroke="none" fill="#000000" fill-rule="evenodd" /><path transform="matrix(1 0 0 -1 0 841)" d="M297.31 680.98L297.79 680.98L297.79 680.98L297.79 681.46L297.79 681.46L297.31 681.46z" stroke="none" fill="#000000" fill-rule="evenodd" /><path transform="matrix(1 0 0 -1 0 841)" d="M297.79 680.98L410.73 680.98L410.73 680.98L410.73 681.46L410.73 681.46L297.79 681.46z" stroke="none" fill="#000000" fill-rule="evenodd" /><path transform="matrix(1 0 0 -1 0 841)" d="M410.74 680.98L411.22 680.98L411.22 680.98L411.22 681.46L411.22 681.46L410.74 681.46z" stroke="none" fill="#000000" fill-rule="evenodd" /><path transform="matrix(1 0 0 -1 0 841)" d="M183.89 665.74L184.37 665.74L184.37 665.74L184.37 680.98L184.37 680.98L183.89 680.98z" stroke="none" fill="#000000" fill-rule="evenodd" /><path transform="matrix(1 0 0 -1 0 841)" d="M183.89 665.26L184.37 665.26L184.37 665.26L184.37 665.74L184.37 665.74L183.89 665.74z" stroke="none" fill="#000000" fill-rule="evenodd" /><path transform="matrix(1 0 0 -1 0 841)" d="M183.89 665.26L184.37 665.26L184.37 665.26L184.37 665.74L184.37 665.74L183.89 665.74z" stroke="none" fill="#000000" fill-rule="evenodd" /><path transform="matrix(1 0 0 -1 0 841)" d="M184.37 665.26L297.31 665.26L297.31 665.26L297.31 665.74L297.31 665.74L184.37 665.74z" stroke="none" fill="#000000" fill-rule="evenodd" /><path transform="matrix(1 0 0 -1 0 841)" d="M297.31 665.74L297.79 665.74L297.79 665.74L297.79 680.98L297.79 680.98L297.31 680.98z" stroke="none" fill="#000000" fill-rule="evenodd" /><path transform="matrix(1 0 0 -1 0 841)" d="M297.31 665.26L297.79 665.26L297.79 665.26L297.79 665.74L297.79 665.74L297.31 665.74z" stroke="none" fill="#000000" fill-rule="evenodd" /><path transform="matrix(1 0 0 -1 0 841)" d="M297.79 665.26L410.73 665.26L410.73 665.26L410.73 665.74L410.73 665.74L297.79 665.74z" stroke="none" fill="#000000" fill-rule="evenodd" /><path transform="matrix(1 0 0 -1 0 841)" d="M410.74 665.74L411.22 665.74L411.22 665.74L411.22 680.98L411.22 680.98L410.74 680.98z" stroke="none" fill="#000000" fill-rule="evenodd" /><path transform="matrix(1 0 0 -1 0 841)" d="M410.74 665.26L411.22 665.26L411.22 665.26L411.22 665.74L411.22 665.74L410.74 665.74z" stroke="none" fill="#000000" fill-rule="evenodd" /><path transform="matrix(1 0 0 -1 0 841)" d="M410.74 665.26L411.22 665.26L411.22 665.26L411.22 665.74L411.22 665.74L410.74 665.74z" stroke="none" fill="#000000" fill-rule="evenodd" /><g clip-path="url(#19)"></g><g clip-path="url(#20)"></g><g clip-path="url(#21)"></g><g clip-path="url(#22)"></g><g clip-path="url(#23)"></g><g clip-path="url(#24)"></g><g clip-path="url(#25)"></g><g clip-path="url(#26)"></g><g clip-path="url(#27)"></g><g clip-path="url(#28)"></g><g clip-path="url(#29)"></g><g clip-path="url(#30)"></g><g clip-path="url(#31)"></g><g clip-path="url(#32)"></g><g clip-path="url(#33)"><path transform="matrix(1 0 0 -1 0 841)" d="M70.344 403.73L70.82401 403.73L70.82401 403.73L70.82401 404.21L70.82401 404.21L70.344 404.21z" stroke="none" fill="#000000" fill-rule="evenodd" /><path transform="matrix(1 0 0 -1 0 841)" d="M70.344 403.73L70.82401 403.73L70.82401 403.73L70.82401 404.21L70.82401 404.21L70.344 404.21z" stroke="none" fill="#000000" fill-rule="evenodd" /><path transform="matrix(1 0 0 -1 0 841)" d="M70.824 403.73L524.284 403.73L524.284 403.73L524.284 404.21L524.284 404.21L70.824 404.21z" stroke="none" fill="#000000" fill-rule="evenodd" /><path transform="matrix(1 0 0 -1 0 841)" d="M524.28 403.73L524.76 403.73L524.76 403.73L524.76 404.21L524.76 404.21L524.28 404.21z" stroke="none" fill="#000000" fill-rule="evenodd" /><path transform="matrix(1 0 0 -1 0 841)" d="M524.28 403.73L524.76 403.73L524.76 403.73L524.76 404.21L524.76 404.21L524.28 404.21z" stroke="none" fill="#000000" fill-rule="evenodd" /><path transform="matrix(1 0 0 -1 0 841)" d="M70.344 391.25L70.82401 391.25L70.82401 391.25L70.82401 403.73L70.82401 403.73L70.344 403.73z" stroke="none" fill="#000000" fill-rule="evenodd" /><path transform="matrix(1 0 0 -1 0 841)" d="M524.28 391.25L524.76 391.25L524.76 391.25L524.76 403.73L524.76 403.73L524.28 403.73z" stroke="none" fill="#000000" fill-rule="evenodd" /></g><g clip-path="url(#34)"></g><g clip-path="url(#35)"><path transform="matrix(1 0 0 -1 0 841)" d="M70.344 369.77L70.82401 369.77L70.82401 369.77L70.82401 391.25L70.82401 391.25L70.344 391.25z" stroke="none" fill="#000000" fill-rule="evenodd" /><path transform="matrix(1 0 0 -1 0 841)" d="M524.28 369.77L524.76 369.77L524.76 369.77L524.76 391.25L524.76 391.25L524.28 391.25z" stroke="none" fill="#000000" fill-rule="evenodd" /></g><g clip-path="url(#36)"></g><g clip-path="url(#37)"><path transform="matrix(1 0 0 -1 0 841)" d="M70.344 353.21L70.82401 353.21L70.82401 353.21L70.82401 369.77L70.82401 369.77L70.344 369.77z" stroke="none" fill="#000000" fill-rule="evenodd" /><path transform="matrix(1 0 0 -1 0 841)" d="M524.28 353.21L524.76 353.21L524.76 353.21L524.76 369.77L524.76 369.77L524.28 369.77z" stroke="none" fill="#000000" fill-rule="evenodd" /></g><g clip-path="url(#38)"></g><g clip-path="url(#39)"><path transform="matrix(1 0 0 -1 0 841)" d="M70.344 340.25L70.82401 340.25L70.82401 340.25L70.82401 340.73L70.82401 340.73L70.344 340.73z" stroke="none" fill="#000000" fill-rule="evenodd" /><path transform="matrix(1 0 0 -1 0 841)" d="M70.344 340.25L70.82401 340.25L70.82401 340.25L70.82401 340.73L70.82401 340.73L70.344 340.73z" stroke="none" fill="#000000" fill-rule="evenodd" /><path transform="matrix(1 0 0 -1 0 841)" d="M70.824 340.25L524.284 340.25L524.284 340.25L524.284 340.73L524.284 340.73L70.824 340.73z" stroke="none" fill="#000000" fill-rule="evenodd" /><path transform="matrix(1 0 0 -1 0 841)" d="M524.28 340.25L524.76 340.25L524.76 340.25L524.76 340.73L524.76 340.73L524.28 340.73z" stroke="none" fill="#000000" fill-rule="evenodd" /><path transform="matrix(1 0 0 -1 0 841)" d="M524.28 340.25L524.76 340.25L524.76 340.25L524.76 340.73L524.76 340.73L524.28 340.73z" stroke="none" fill="#000000" fill-rule="evenodd" /><path transform="matrix(1 0 0 -1 0 841)" d="M70.344 340.73L70.82401 340.73L70.82401 340.73L70.82401 353.21L70.82401 353.21L70.344 353.21z" stroke="none" fill="#000000" fill-rule="evenodd" /><path transform="matrix(1 0 0 -1 0 841)" d="M524.28 340.73L524.76 340.73L524.76 340.73L524.76 353.21L524.76 353.21L524.28 353.21z" stroke="none" fill="#000000" fill-rule="evenodd" /></g><g clip-path="url(#40)"></g><g clip-path="url(#41)"></g><g clip-path="url(#42)"></g><g clip-path="url(#43)"></g></g></g></g><defs><clipPath id="1"><path d="M0 841L0 -0.9199829L0 -0.9199829L595.32 -0.9199829L595.32 -0.9199829L595.32 841L595.32 841L0 841z" /></clipPath><clipPath id="2"><path d="M0.00125 841.1213L595.4712 841.1213L595.4712 841.1213L595.4712 -0.9186401L595.4712 -0.9186401L0.00125 -0.9186401z" /></clipPath><clipPath id="3"><path d="M184.37 159.55L297.32 159.55L297.32 159.55L297.32 144.31L297.32 144.31L184.37 144.31z" /></clipPath><clipPath id="4"><path d="M184.37 159.54L297.31 159.54L297.31 159.54L297.31 144.3L297.31 144.3L184.37 144.3z" /></clipPath><clipPath id="5"><path d="M184.37 159.54L297.31 159.54L297.31 159.54L297.31 144.3L297.31 144.3L184.37 144.3z" /></clipPath><clipPath id="6"><path d="M297.8 159.55L410.73 159.55L410.73 159.55L410.73 144.31L410.73 144.31L297.8 144.31z" /></clipPath><clipPath id="7"><path d="M297.79 159.54L410.73 159.54L410.73 159.54L410.73 144.3L410.73 144.3L297.79 144.3z" /></clipPath><clipPath id="8"><path d="M297.79 159.54L410.73 159.54L410.73 159.54L410.73 144.3L410.73 144.3L297.79 144.3z" /></clipPath><clipPath id="9"><path d="M184.37 175.15L297.32 175.15L297.32 175.15L297.32 160.03L297.32 160.03L184.37 160.03z" /></clipPath><clipPath id="10"><path d="M184.37 175.14L297.31 175.14L297.31 175.14L297.31 160.02L297.31 160.02L184.37 160.02z" /></clipPath><clipPath id="11"><path d="M184.37 175.14L297.31 175.14L297.31 175.14L297.31 160.02L297.31 160.02L184.37 160.02z" /></clipPath><clipPath id="12"><path d="M184.37 175.14L297.31 175.14L297.31 175.14L297.31 160.02L297.31 160.02L184.37 160.02z" /></clipPath><clipPath id="13"><path d="M184.37 175.14L297.31 175.14L297.31 175.14L297.31 160.02L297.31 160.02L184.37 160.02z" /></clipPath><clipPath id="14"><path d="M297.8 175.15L410.73 175.15L410.73 175.15L410.73 160.03L410.73 160.03L297.8 160.03z" /></clipPath><clipPath id="15"><path d="M297.79 175.14L410.73 175.14L410.73 175.14L410.73 160.02L410.73 160.02L297.79 160.02z" /></clipPath><clipPath id="16"><path d="M297.79 175.14L410.73 175.14L410.73 175.14L410.73 160.02L410.73 160.02L297.79 160.02z" /></clipPath><clipPath id="17"><path d="M297.79 175.14L410.73 175.14L410.73 175.14L410.73 160.02L410.73 160.02L297.79 160.02z" /></clipPath><clipPath id="18"><path d="M297.79 175.14L410.73 175.14L410.73 175.14L410.73 160.02L410.73 160.02L297.79 160.02z" /></clipPath><clipPath id="19"><path d="M0.00125 841.1213L595.4712 841.1213L595.4712 841.1213L595.4712 -0.9186401L595.4712 -0.9186401L0.00125 -0.9186401z" /></clipPath><clipPath id="20"><path d="M0.00125 841.1213L595.4712 841.1213L595.4712 841.1213L595.4712 -0.9186401L595.4712 -0.9186401L0.00125 -0.9186401z" /></clipPath><clipPath id="21"><path d="M0.00125 841.1213L595.4712 841.1213L595.4712 841.1213L595.4712 -0.9186401L595.4712 -0.9186401L0.00125 -0.9186401z" /></clipPath><clipPath id="22"><path d="M0.00125 841.1213L595.4712 841.1213L595.4712 841.1213L595.4712 -0.9186401L595.4712 -0.9186401L0.00125 -0.9186401z" /></clipPath><clipPath id="23"><path d="M0.00125 841.1213L595.4712 841.1213L595.4712 841.1213L595.4712 -0.9186401L595.4712 -0.9186401L0.00125 -0.9186401z" /></clipPath><clipPath id="24"><path d="M0.00125 841.1213L595.4712 841.1213L595.4712 841.1213L595.4712 -0.9186401L595.4712 -0.9186401L0.00125 -0.9186401z" /></clipPath><clipPath id="25"><path d="M0.00125 841.1213L595.4712 841.1213L595.4712 841.1213L595.4712 -0.9186401L595.4712 -0.9186401L0.00125 -0.9186401z" /></clipPath><clipPath id="26"><path d="M0.00125 841.1213L595.4712 841.1213L595.4712 841.1213L595.4712 -0.9186401L595.4712 -0.9186401L0.00125 -0.9186401z" /></clipPath><clipPath id="27"><path d="M0.00125 841.1213L595.4712 841.1213L595.4712 841.1213L595.4712 -0.9186401L595.4712 -0.9186401L0.00125 -0.9186401z" /></clipPath><clipPath id="28"><path d="M0.00125 841.1213L595.4712 841.1213L595.4712 841.1213L595.4712 -0.9186401L595.4712 -0.9186401L0.00125 -0.9186401z" /></clipPath><clipPath id="29"><path d="M0.00125 841.1213L595.4712 841.1213L595.4712 841.1213L595.4712 -0.9186401L595.4712 -0.9186401L0.00125 -0.9186401z" /></clipPath><clipPath id="30"><path d="M0.00125 841.1213L595.4712 841.1213L595.4712 841.1213L595.4712 -0.9186401L595.4712 -0.9186401L0.00125 -0.9186401z" /></clipPath><clipPath id="31"><path d="M0.00125 841.1213L595.4712 841.1213L595.4712 841.1213L595.4712 -0.9186401L595.4712 -0.9186401L0.00125 -0.9186401z" /></clipPath><clipPath id="32"><path d="M0.00125 841.1213L595.4712 841.1213L595.4712 841.1213L595.4712 -0.9186401L595.4712 -0.9186401L0.00125 -0.9186401z" /></clipPath><clipPath id="33"><path d="M0.00125 841.1213L595.4712 841.1213L595.4712 841.1213L595.4712 -0.9186401L595.4712 -0.9186401L0.00125 -0.9186401z" /></clipPath><clipPath id="34"><path d="M0.00125 841.1213L595.4712 841.1213L595.4712 841.1213L595.4712 -0.9186401L595.4712 -0.9186401L0.00125 -0.9186401z" /></clipPath><clipPath id="35"><path d="M0.00125 841.1213L595.4712 841.1213L595.4712 841.1213L595.4712 -0.9186401L595.4712 -0.9186401L0.00125 -0.9186401z" /></clipPath><clipPath id="36"><path d="M0.00125 841.1213L595.4712 841.1213L595.4712 841.1213L595.4712 -0.9186401L595.4712 -0.9186401L0.00125 -0.9186401z" /></clipPath><clipPath id="37"><path d="M0.00125 841.1213L595.4712 841.1213L595.4712 841.1213L595.4712 -0.9186401L595.4712 -0.9186401L0.00125 -0.9186401z" /></clipPath><clipPath id="38"><path d="M0.00125 841.1213L595.4712 841.1213L595.4712 841.1213L595.4712 -0.9186401L595.4712 -0.9186401L0.00125 -0.9186401z" /></clipPath><clipPath id="39"><path d="M0.00125 841.1213L595.4712 841.1213L595.4712 841.1213L595.4712 -0.9186401L595.4712 -0.9186401L0.00125 -0.9186401z" /></clipPath><clipPath id="40"><path d="M0.00125 841.1213L595.4712 841.1213L595.4712 841.1213L595.4712 -0.9186401L595.4712 -0.9186401L0.00125 -0.9186401z" /></clipPath><clipPath id="41"><path d="M0.00125 841.1213L595.4712 841.1213L595.4712 841.1213L595.4712 -0.9186401L595.4712 -0.9186401L0.00125 -0.9186401z" /></clipPath><clipPath id="42"><path d="M0.00125 841.1213L595.4712 841.1213L595.4712 841.1213L595.4712 -0.9186401L595.4712 -0.9186401L0.00125 -0.9186401z" /></clipPath><clipPath id="43"><path d="M0.00125 841.1213L595.4712 841.1213L595.4712 841.1213L595.4712 -0.9186401L595.4712 -0.9186401L0.00125 -0.9186401z" /></clipPath></defs></svg>