<svg xmlns="http://www.w3.org/2000/svg" xmlns:xlink="http://www.w3.org/1999/xlink" id="body" width="793" height="1123"><g transform="matrix(1.333333 0 0 1.333333 0 0)"><g><g clip-path="url(#1)"><g clip-path="url(#2)"></g><g clip-path="url(#3)"></g><g clip-path="url(#4)"></g><g clip-path="url(#5)"></g><g clip-path="url(#6)"></g><g clip-path="url(#7)"></g><g clip-path="url(#8)"></g><g clip-path="url(#9)"></g><g clip-path="url(#10)"></g><g clip-path="url(#11)"></g><g clip-path="url(#12)"></g><g clip-path="url(#13)"></g><g clip-path="url(#14)"></g><path transform="matrix(1 0 0 -1 0 842)" d="M209.4 732.12L210.12 732.12L210.12 732.12L210.12 732.84L210.12 732.84L209.4 732.84z" stroke="none" fill="#000000" fill-rule="winding" /><path transform="matrix(1 0 0 -1 0 842)" d="M209.4 732.12L210.12 732.12L210.12 732.12L210.12 732.84L210.12 732.84L209.4 732.84z" stroke="none" fill="#000000" fill-rule="winding" /><path transform="matrix(1 0 0 -1 0 842)" d="M210.12 732.12L538.2 732.12L538.2 732.12L538.2 732.84L538.2 732.84L210.12 732.84z" stroke="none" fill="#000000" fill-rule="winding" /><path transform="matrix(1 0 0 -1 0 842)" d="M538.2 732.12L538.92 732.12L538.92 732.12L538.92 732.84L538.92 732.84L538.2 732.84z" stroke="none" fill="#000000" fill-rule="winding" /><path transform="matrix(1 0 0 -1 0 842)" d="M538.2 732.12L538.92 732.12L538.92 732.12L538.92 732.84L538.92 732.84L538.2 732.84z" stroke="none" fill="#000000" fill-rule="winding" /><path transform="matrix(1 0 0 -1 0 842)" d="M209.4 706.32L210.12 706.32L210.12 706.32L210.12 732.12L210.12 732.12L209.4 732.12z" stroke="none" fill="#000000" fill-rule="winding" /><path transform="matrix(1 0 0 -1 0 842)" d="M538.2 706.32L538.92 706.32L538.92 706.32L538.92 732.12L538.92 732.12L538.2 732.12z" stroke="none" fill="#000000" fill-rule="winding" /><g clip-path="url(#15)"></g><path transform="matrix(1 0 0 -1 0 842)" d="M209.4 705.6L210.12 705.6L210.12 705.6L210.12 706.3199L210.12 706.3199L209.4 706.3199z" stroke="none" fill="#000000" fill-rule="winding" /><path transform="matrix(1 0 0 -1 0 842)" d="M210.12 705.6L373.799 705.6L373.799 705.6L373.799 706.3199L373.799 706.3199L210.12 706.3199z" stroke="none" fill="#000000" fill-rule="winding" /><path transform="matrix(1 0 0 -1 0 842)" d="M373.8 705.6L374.52 705.6L374.52 705.6L374.52 706.3199L374.52 706.3199L373.8 706.3199z" stroke="none" fill="#000000" fill-rule="winding" /><path transform="matrix(1 0 0 -1 0 842)" d="M374.52 705.6L538.2 705.6L538.2 705.6L538.2 706.3199L538.2 706.3199L374.52 706.3199z" stroke="none" fill="#000000" fill-rule="winding" /><path transform="matrix(1 0 0 -1 0 842)" d="M538.2 705.6L538.92 705.6L538.92 705.6L538.92 706.3199L538.92 706.3199L538.2 706.3199z" stroke="none" fill="#000000" fill-rule="winding" /><path transform="matrix(1 0 0 -1 0 842)" d="M209.4 678.72L210.12 678.72L210.12 678.72L210.12 705.6L210.12 705.6L209.4 705.6z" stroke="none" fill="#000000" fill-rule="winding" /><path transform="matrix(1 0 0 -1 0 842)" d="M373.8 678.72L374.52 678.72L374.52 678.72L374.52 705.6L374.52 705.6L373.8 705.6z" stroke="none" fill="#000000" fill-rule="winding" /><path transform="matrix(1 0 0 -1 0 842)" d="M538.2 678.72L538.92 678.72L538.92 678.72L538.92 705.6L538.92 705.6L538.2 705.6z" stroke="none" fill="#000000" fill-rule="winding" /><path transform="matrix(1 0 0 -1 0 842)" d="M52.08 659.64L62.4 659.64L62.4 659.64L62.4 649.32L62.4 649.32L52.08 649.32z" stroke="#000000" stroke-width="0.72" stroke-linecap="square" fill="none" /><path transform="matrix(1 0 0 -1 0 842)" d="M51.96 659.76L62.52 649.2" stroke="#000000" stroke-width="0.48" stroke-linecap="square" fill="none" /><path transform="matrix(1 0 0 -1 0 842)" d="M62.52 659.76L51.96 649.2" stroke="#000000" stroke-width="0.48" stroke-linecap="square" fill="none" /><g clip-path="url(#16)"></g><g clip-path="url(#17)"></g><g clip-path="url(#18)"></g><g clip-path="url(#19)"></g><g clip-path="url(#20)"></g><g clip-path="url(#21)"></g><g clip-path="url(#22)"></g><g clip-path="url(#23)"></g><g clip-path="url(#24)"></g><g clip-path="url(#25)"></g><g clip-path="url(#26)"></g><g clip-path="url(#27)"></g><path transform="matrix(1 0 0 -1 0 842)" d="M45.36 678L45.84 678L45.84 678L45.84 678.72L45.84 678.72L45.36 678.72z" stroke="none" fill="#000000" fill-rule="winding" /><path transform="matrix(1 0 0 -1 0 842)" d="M45.36 678.24L45.84 678.24L45.84 678.24L45.84 678.72L45.84 678.72L45.36 678.72z" stroke="none" fill="#000000" fill-rule="winding" /><path transform="matrix(1 0 0 -1 0 842)" d="M45.84 678.24L46.321 678.24L46.321 678.24L46.321 678.72L46.321 678.72L45.84 678.72z" stroke="none" fill="#000000" fill-rule="winding" /><path transform="matrix(1 0 0 -1 0 842)" d="M46.32 678.24L72.36 678.24L72.36 678.24L72.36 678.72L72.36 678.72L46.32 678.72z" stroke="none" fill="#000000" fill-rule="winding" /><path transform="matrix(1 0 0 -1 0 842)" d="M72.36 678.24L72.84 678.24L72.84 678.24L72.84 678.72L72.84 678.72L72.36 678.72z" stroke="none" fill="#000000" fill-rule="winding" /><path transform="matrix(1 0 0 -1 0 842)" d="M72.84 678.24L209.401 678.24L209.401 678.24L209.401 678.72L209.401 678.72L72.84 678.72z" stroke="none" fill="#000000" fill-rule="winding" /><path transform="matrix(1 0 0 -1 0 842)" d="M209.4 678L210.12 678L210.12 678L210.12 678.72L210.12 678.72L209.4 678.72z" stroke="none" fill="#000000" fill-rule="winding" /><path transform="matrix(1 0 0 -1 0 842)" d="M209.4 678L210.12 678L210.12 678L210.12 678.72L210.12 678.72L209.4 678.72z" stroke="none" fill="#000000" fill-rule="winding" /><path transform="matrix(1 0 0 -1 0 842)" d="M210.12 678L210.84 678L210.84 678L210.84 678.72L210.84 678.72L210.12 678.72z" stroke="none" fill="#000000" fill-rule="winding" /><path transform="matrix(1 0 0 -1 0 842)" d="M210.84 678L373.799 678L373.799 678L373.799 678.72L373.799 678.72L210.84 678.72z" stroke="none" fill="#000000" fill-rule="winding" /><path transform="matrix(1 0 0 -1 0 842)" d="M373.8 678L374.52 678L374.52 678L374.52 678.72L374.52 678.72L373.8 678.72z" stroke="none" fill="#000000" fill-rule="winding" /><path transform="matrix(1 0 0 -1 0 842)" d="M374.52 678L538.2 678L538.2 678L538.2 678.72L538.2 678.72L374.52 678.72z" stroke="none" fill="#000000" fill-rule="winding" /><path transform="matrix(1 0 0 -1 0 842)" d="M538.2 678L538.92 678L538.92 678L538.92 678.72L538.92 678.72L538.2 678.72z" stroke="none" fill="#000000" fill-rule="winding" /><path transform="matrix(1 0 0 -1 0 842)" d="M45.36 629.76L45.84 629.76L45.84 629.76L45.84 678L45.84 678L45.36 678z" stroke="none" fill="#000000" fill-rule="winding" /><path transform="matrix(1 0 0 -1 0 842)" d="M209.52 629.76L210 629.76L210 629.76L210 678L210 678L209.52 678z" stroke="none" fill="#000000" fill-rule="winding" /><path transform="matrix(1 0 0 -1 0 842)" d="M373.8 629.76L374.52 629.76L374.52 629.76L374.52 678L374.52 678L373.8 678z" stroke="none" fill="#000000" fill-rule="winding" /><path transform="matrix(1 0 0 -1 0 842)" d="M538.2 629.76L538.92 629.76L538.92 629.76L538.92 678L538.92 678L538.2 678z" stroke="none" fill="#000000" fill-rule="winding" /><path transform="matrix(1 0 0 -1 0 842)" d="M45.24 629.04L45.96 629.04L45.96 629.04L45.96 629.7599L45.96 629.7599L45.24 629.7599z" stroke="none" fill="#000000" fill-rule="winding" /><path transform="matrix(1 0 0 -1 0 842)" d="M45.24 629.04L45.96 629.04L45.96 629.04L45.96 629.7599L45.96 629.7599L45.24 629.7599z" stroke="none" fill="#000000" fill-rule="winding" /><path transform="matrix(1 0 0 -1 0 842)" d="M45.96 629.04L46.68 629.04L46.68 629.04L46.68 629.7599L46.68 629.7599L45.96 629.7599z" stroke="none" fill="#000000" fill-rule="winding" /><path transform="matrix(1 0 0 -1 0 842)" d="M46.68 629.04L72.36 629.04L72.36 629.04L72.36 629.7599L72.36 629.7599L46.68 629.7599z" stroke="none" fill="#000000" fill-rule="winding" /><path transform="matrix(1 0 0 -1 0 842)" d="M72.36 629.04L73.08 629.04L73.08 629.04L73.08 629.7599L73.08 629.7599L72.36 629.7599z" stroke="none" fill="#000000" fill-rule="winding" /><path transform="matrix(1 0 0 -1 0 842)" d="M73.08 629.04L209.52 629.04L209.52 629.04L209.52 629.7599L209.52 629.7599L73.08 629.7599z" stroke="none" fill="#000000" fill-rule="winding" /><path transform="matrix(1 0 0 -1 0 842)" d="M209.52 629.04L210.24 629.04L210.24 629.04L210.24 629.7599L210.24 629.7599L209.52 629.7599z" stroke="none" fill="#000000" fill-rule="winding" /><path transform="matrix(1 0 0 -1 0 842)" d="M210.24 629.04L291.72 629.04L291.72 629.04L291.72 629.7599L291.72 629.7599L210.24 629.7599z" stroke="none" fill="#000000" fill-rule="winding" /><path transform="matrix(1 0 0 -1 0 842)" d="M291.72 629.04L292.44 629.04L292.44 629.04L292.44 629.7599L292.44 629.7599L291.72 629.7599z" stroke="none" fill="#000000" fill-rule="winding" /><path transform="matrix(1 0 0 -1 0 842)" d="M292.44 629.04L373.8 629.04L373.8 629.04L373.8 629.7599L373.8 629.7599L292.44 629.7599z" stroke="none" fill="#000000" fill-rule="winding" /><path transform="matrix(1 0 0 -1 0 842)" d="M373.8 629.04L374.52 629.04L374.52 629.04L374.52 629.7599L374.52 629.7599L373.8 629.7599z" stroke="none" fill="#000000" fill-rule="winding" /><path transform="matrix(1 0 0 -1 0 842)" d="M374.52 629.04L538.2 629.04L538.2 629.04L538.2 629.7599L538.2 629.7599L374.52 629.7599z" stroke="none" fill="#000000" fill-rule="winding" /><path transform="matrix(1 0 0 -1 0 842)" d="M538.2 629.04L538.92 629.04L538.92 629.04L538.92 629.7599L538.92 629.7599L538.2 629.7599z" stroke="none" fill="#000000" fill-rule="winding" /><path transform="matrix(1 0 0 -1 0 842)" d="M45.24 593.88L45.96 593.88L45.96 593.88L45.96 629.039L45.96 629.039L45.24 629.039z" stroke="none" fill="#000000" fill-rule="winding" /><path transform="matrix(1 0 0 -1 0 842)" d="M291.72 593.88L292.44 593.88L292.44 593.88L292.44 629.039L292.44 629.039L291.72 629.039z" stroke="none" fill="#000000" fill-rule="winding" /><path transform="matrix(1 0 0 -1 0 842)" d="M538.2 593.88L538.92 593.88L538.92 593.88L538.92 629.039L538.92 629.039L538.2 629.039z" stroke="none" fill="#000000" fill-rule="winding" /><g clip-path="url(#28)"></g><g clip-path="url(#29)"></g><path transform="matrix(1 0 0 -1 0 842)" d="M45.24 593.4L45.96 593.4L45.96 593.4L45.96 593.881L45.96 593.881L45.24 593.881z" stroke="none" fill="#000000" fill-rule="winding" /><path transform="matrix(1 0 0 -1 0 842)" d="M45.96 593.4L46.44 593.4L46.44 593.4L46.44 593.881L46.44 593.881L45.96 593.881z" stroke="none" fill="#000000" fill-rule="winding" /><path transform="matrix(1 0 0 -1 0 842)" d="M46.44 593.4L291.72 593.4L291.72 593.4L291.72 593.881L291.72 593.881L46.44 593.881z" stroke="none" fill="#000000" fill-rule="winding" /><path transform="matrix(1 0 0 -1 0 842)" d="M291.72 593.4L292.201 593.4L292.201 593.4L292.201 593.881L292.201 593.881L291.72 593.881z" stroke="none" fill="#000000" fill-rule="winding" /><path transform="matrix(1 0 0 -1 0 842)" d="M292.2 593.4L538.2 593.4L538.2 593.4L538.2 593.881L538.2 593.881L292.2 593.881z" stroke="none" fill="#000000" fill-rule="winding" /><path transform="matrix(1 0 0 -1 0 842)" d="M538.2 593.4L538.68 593.4L538.68 593.4L538.68 593.881L538.68 593.881L538.2 593.881z" stroke="none" fill="#000000" fill-rule="winding" /><path transform="matrix(1 0 0 -1 0 842)" d="M538.68 593.4L538.92 593.4L538.92 593.4L538.92 593.881L538.92 593.881L538.68 593.881z" stroke="none" fill="#000000" fill-rule="winding" /><path transform="matrix(1 0 0 -1 0 842)" d="M45.36 572.76L45.84 572.76L45.84 572.76L45.84 593.4L45.84 593.4L45.36 593.4z" stroke="none" fill="#000000" fill-rule="winding" /><path transform="matrix(1 0 0 -1 0 842)" d="M538.32 572.76L538.801 572.76L538.801 572.76L538.801 593.4L538.801 593.4L538.32 593.4z" stroke="none" fill="#000000" fill-rule="winding" /><g clip-path="url(#30)"><path transform="matrix(1 0 0 -1 0 842)" d="M52.08 571.68L62.4 571.68L62.4 571.68L62.4 561.36L62.4 561.36L52.08 561.36z" stroke="#000000" stroke-width="0.72" stroke-linecap="square" fill="none" /></g><g clip-path="url(#31)"></g><g clip-path="url(#32)"></g><g clip-path="url(#33)"></g><g clip-path="url(#34)"></g><g clip-path="url(#35)"></g><path transform="matrix(1 0 0 -1 0 842)" d="M45.36 550.92L45.84 550.92L45.84 550.92L45.84 572.76L45.84 572.76L45.36 572.76z" stroke="none" fill="#000000" fill-rule="winding" /><path transform="matrix(1 0 0 -1 0 842)" d="M538.32 550.92L538.801 550.92L538.801 550.92L538.801 572.76L538.801 572.76L538.32 572.76z" stroke="none" fill="#000000" fill-rule="winding" /><path transform="matrix(1 0 0 -1 0 842)" d="M45.24 550.44L45.96 550.44L45.96 550.44L45.96 550.92L45.96 550.92L45.24 550.92z" stroke="none" fill="#000000" fill-rule="winding" /><path transform="matrix(1 0 0 -1 0 842)" d="M45.96 550.44L46.44 550.44L46.44 550.44L46.44 550.92L46.44 550.92L45.96 550.92z" stroke="none" fill="#000000" fill-rule="winding" /><path transform="matrix(1 0 0 -1 0 842)" d="M46.44 550.44L538.2 550.44L538.2 550.44L538.2 550.92L538.2 550.92L46.44 550.92z" stroke="none" fill="#000000" fill-rule="winding" /><path transform="matrix(1 0 0 -1 0 842)" d="M538.2 550.44L538.68 550.44L538.68 550.44L538.68 550.92L538.68 550.92L538.2 550.92z" stroke="none" fill="#000000" fill-rule="winding" /><path transform="matrix(1 0 0 -1 0 842)" d="M538.68 550.44L538.92 550.44L538.92 550.44L538.92 550.92L538.92 550.92L538.68 550.92z" stroke="none" fill="#000000" fill-rule="winding" /><path transform="matrix(1 0 0 -1 0 842)" d="M45.24 529.8L45.96 529.8L45.96 529.8L45.96 550.44L45.96 550.44L45.24 550.44z" stroke="none" fill="#000000" fill-rule="winding" /><path transform="matrix(1 0 0 -1 0 842)" d="M538.2 529.8L538.92 529.8L538.92 529.8L538.92 550.44L538.92 550.44L538.2 550.44z" stroke="none" fill="#000000" fill-rule="winding" /><path transform="matrix(1 0 0 -1 0 842)" d="M52.08 527.76L62.4 527.76L62.4 527.76L62.4 517.44L62.4 517.44L52.08 517.44z" stroke="#000000" stroke-width="0.72" stroke-linecap="square" fill="none" /><path transform="matrix(1 0 0 -1 0 842)" d="M51.96 527.88L62.52 517.32" stroke="#000000" stroke-width="0.48" stroke-linecap="square" fill="none" /><path transform="matrix(1 0 0 -1 0 842)" d="M62.52 527.88L51.96 517.32" stroke="#000000" stroke-width="0.48" stroke-linecap="square" fill="none" /><g clip-path="url(#36)"></g><path transform="matrix(1 0 0 -1 0 842)" d="M175.32 527.76L185.64 527.76L185.64 527.76L185.64 517.44L185.64 517.44L175.32 517.44z" stroke="#000000" stroke-width="0.72" stroke-linecap="square" fill="none" /><g clip-path="url(#37)"></g><g clip-path="url(#38)"></g><g clip-path="url(#39)"></g><path transform="matrix(1 0 0 -1 0 842)" d="M298.56 527.76L308.88 527.76L308.88 527.76L308.88 517.44L308.88 517.44L298.56 517.44z" stroke="#000000" stroke-width="0.72" stroke-linecap="square" fill="none" /><path transform="matrix(1 0 0 -1 0 842)" d="M298.44 527.88L309 517.32" stroke="#000000" stroke-width="0.48" stroke-linecap="square" fill="none" /><path transform="matrix(1 0 0 -1 0 842)" d="M309 527.88L298.44 517.32" stroke="#000000" stroke-width="0.48" stroke-linecap="square" fill="none" /><g clip-path="url(#40)"></g><g clip-path="url(#41)"></g><g clip-path="url(#42)"></g><path transform="matrix(1 0 0 -1 0 842)" d="M421.68 527.76L432 527.76L432 527.76L432 517.44L432 517.44L421.68 517.44z" stroke="#000000" stroke-width="0.72" stroke-linecap="square" fill="none" /><g clip-path="url(#43)"></g><g clip-path="url(#44)"></g><g clip-path="url(#45)"></g><path transform="matrix(1 0 0 -1 0 842)" d="M45.24 505.92L45.96 505.92L45.96 505.92L45.96 529.801L45.96 529.801L45.24 529.801z" stroke="none" fill="#000000" fill-rule="winding" /><path transform="matrix(1 0 0 -1 0 842)" d="M538.2 505.92L538.92 505.92L538.92 505.92L538.92 529.801L538.92 529.801L538.2 529.801z" stroke="none" fill="#000000" fill-rule="winding" /><g clip-path="url(#46)"></g><g clip-path="url(#47)"></g><g clip-path="url(#48)"></g><g clip-path="url(#49)"></g><g clip-path="url(#50)"></g><g clip-path="url(#51)"></g><path transform="matrix(1 0 0 -1 0 842)" d="M45.24 505.2L45.96 505.2L45.96 505.2L45.96 505.92L45.96 505.92L45.24 505.92z" stroke="none" fill="#000000" fill-rule="winding" /><path transform="matrix(1 0 0 -1 0 842)" d="M45.24 505.2L45.96 505.2L45.96 505.2L45.96 505.92L45.96 505.92L45.24 505.92z" stroke="none" fill="#000000" fill-rule="winding" /><path transform="matrix(1 0 0 -1 0 842)" d="M45.96 505.2L46.68 505.2L46.68 505.2L46.68 505.92L46.68 505.92L45.96 505.92z" stroke="none" fill="#000000" fill-rule="winding" /><path transform="matrix(1 0 0 -1 0 842)" d="M46.68 505.2L168.84 505.2L168.84 505.2L168.84 505.92L168.84 505.92L46.68 505.92z" stroke="none" fill="#000000" fill-rule="winding" /><path transform="matrix(1 0 0 -1 0 842)" d="M168.84 505.2L169.56 505.2L169.56 505.2L169.56 505.92L169.56 505.92L168.84 505.92z" stroke="none" fill="#000000" fill-rule="winding" /><path transform="matrix(1 0 0 -1 0 842)" d="M169.56 505.2L292.08 505.2L292.08 505.2L292.08 505.92L292.08 505.92L169.56 505.92z" stroke="none" fill="#000000" fill-rule="winding" /><path transform="matrix(1 0 0 -1 0 842)" d="M292.08 505.2L292.8 505.2L292.8 505.2L292.8 505.92L292.8 505.92L292.08 505.92z" stroke="none" fill="#000000" fill-rule="winding" /><path transform="matrix(1 0 0 -1 0 842)" d="M292.8 505.2L415.2 505.2L415.2 505.2L415.2 505.92L415.2 505.92L292.8 505.92z" stroke="none" fill="#000000" fill-rule="winding" /><path transform="matrix(1 0 0 -1 0 842)" d="M415.2 505.2L415.92 505.2L415.92 505.2L415.92 505.92L415.92 505.92L415.2 505.92z" stroke="none" fill="#000000" fill-rule="winding" /><path transform="matrix(1 0 0 -1 0 842)" d="M415.92 505.2L538.2 505.2L538.2 505.2L538.2 505.92L538.2 505.92L415.92 505.92z" stroke="none" fill="#000000" fill-rule="winding" /><path transform="matrix(1 0 0 -1 0 842)" d="M538.2 505.2L538.92 505.2L538.92 505.2L538.92 505.92L538.92 505.92L538.2 505.92z" stroke="none" fill="#000000" fill-rule="winding" /><path transform="matrix(1 0 0 -1 0 842)" d="M538.2 505.2L538.92 505.2L538.92 505.2L538.92 505.92L538.92 505.92L538.2 505.92z" stroke="none" fill="#000000" fill-rule="winding" /><g clip-path="url(#52)"></g><g clip-path="url(#53)"></g><g clip-path="url(#54)"></g><g clip-path="url(#55)"></g><g clip-path="url(#56)"></g><g clip-path="url(#57)"></g><path transform="matrix(1 0 0 -1 0 842)" d="M62.65 63.19L553.9 63.19L553.9 63.19L553.9 135.94L553.9 135.94L62.65 135.94z" stroke="none" fill="#FFFFFF" fill-rule="evenodd" /><path transform="matrix(1 0 0 -1 0 842)" d="M63.15 135.4401L64.15 134.4401L64.15 134.4401L552.4 134.4401L552.4 134.4401L552.4 64.69009L552.4 64.69009L64.15 64.69009L64.15 64.69009L64.15 134.4401zM63.15 63.69009L553.4 63.69009L553.4 63.69009L553.4 135.4401L553.4 135.4401L63.15 135.4401zM61.15 135.9401L61.15 63.19009L61.15 63.19009L61.15 61.69009L61.15 61.69009L62.65 61.69009L62.65 61.69009L553.9 61.69009L553.9 61.69009L555.4 61.69009L555.4 61.69009L555.4 63.19009L555.4 63.19009L555.4 135.9401L555.4 135.9401L555.4 137.4401L555.4 137.4401L553.9 137.4401L553.9 137.4401L62.65 137.4401L62.65 137.4401L61.15 137.4401L61.15 137.4401L61.15 135.9401L61.15 135.9401L62.15 135.9401L62.15 135.9401L62.15 136.4401L62.15 136.4401L62.65 136.4401L62.65 136.4401L553.9 136.4401L553.9 136.4401L554.4 136.4401L554.4 136.4401L554.4 135.9401L554.4 135.9401L554.4 63.19009L554.4 63.19009L554.4 62.69009L554.4 62.69009L553.9 62.69009L553.9 62.69009L62.65 62.69009L62.65 62.69009L62.15 62.69009L62.15 62.69009L62.15 63.19009L62.15 63.19009L62.15 135.9401z" stroke="none" fill="#0000FF" fill-rule="winding" /><g clip-path="url(#58)"></g><g clip-path="url(#59)"></g><g clip-path="url(#60)"></g><g clip-path="url(#61)"></g><g clip-path="url(#62)"></g><g clip-path="url(#63)"></g><g clip-path="url(#64)"><g transform="matrix(0.6666667 0 0 0.6666667 48 49)"><g transform="matrix(1 0 0 1 0 0)"><image x="0" y="0" xlink:href="img_01.png" width="84" height="84" /></g></g></g><g clip-path="url(#65)"></g><g clip-path="url(#66)"></g><g clip-path="url(#67)"></g></g></g></g><defs><clipPath id="1"><path d="M0 842L0 -0.03997803L0 -0.03997803L595.32 -0.03997803L595.32 -0.03997803L595.32 842L595.32 842L0 842z" /></clipPath><clipPath id="2"><path d="M47.28 812.36L245.28 812.36L245.28 812.36L245.28 801.56L245.28 801.56L47.28 801.56z" /></clipPath><clipPath id="3"><path d="M47.28 812.36L245.28 812.36L245.28 812.36L245.28 801.56L245.28 801.56L47.28 801.56z" /></clipPath><clipPath id="4"><path d="M47.28 812.36L245.28 812.36L245.28 812.36L245.28 801.56L245.28 801.56L47.28 801.56z" /></clipPath><clipPath id="5"><path d="M0 842L595.31 842L595.31 842L595.31 -0.0380249L595.31 -0.0380249L0 -0.0380249z" /></clipPath><clipPath id="6"><path d="M45.72 163.28L209.88 163.28L209.88 163.28L209.88 53.96002L209.88 53.96002L45.72 53.96002z" /></clipPath><clipPath id="7"><path d="M209.88 109.16L538.68 109.16L538.68 109.16L538.68 53.95996L538.68 53.95996L209.88 53.95996z" /></clipPath><clipPath id="8"><path d="M209.88 109.16L538.68 109.16L538.68 109.16L538.68 53.95996L538.68 53.95996L209.88 53.95996z" /></clipPath><clipPath id="9"><path d="M209.88 109.16L538.68 109.16L538.68 109.16L538.68 53.95996L538.68 53.95996L209.88 53.95996z" /></clipPath><clipPath id="10"><path d="M209.88 109.16L538.68 109.16L538.68 109.16L538.68 53.95996L538.68 53.95996L209.88 53.95996z" /></clipPath><clipPath id="11"><path d="M209.88 109.16L538.68 109.16L538.68 109.16L538.68 53.95996L538.68 53.95996L209.88 53.95996z" /></clipPath><clipPath id="12"><path d="M209.88 109.16L538.68 109.16L538.68 109.16L538.68 53.95996L538.68 53.95996L209.88 53.95996z" /></clipPath><clipPath id="13"><path d="M209.88 109.16L538.68 109.16L538.68 109.16L538.68 53.95996L538.68 53.95996L209.88 53.95996z" /></clipPath><clipPath id="14"><path d="M209.88 109.16L538.68 109.16L538.68 109.16L538.68 53.95996L538.68 53.95996L209.88 53.95996z" /></clipPath><clipPath id="15"><path d="M210.24 163.28L373.8 163.28L373.8 163.28L373.8 136.4L373.8 136.4L210.24 136.4z" /></clipPath><clipPath id="16"><path d="M72.36 212.24L209.64 212.24L209.64 212.24L209.64 164L209.64 164L72.36 164z" /></clipPath><clipPath id="17"><path d="M72.36 212.24L209.64 212.24L209.64 212.24L209.64 164L209.64 164L72.36 164z" /></clipPath><clipPath id="18"><path d="M72.36 212.24L209.64 212.24L209.64 212.24L209.64 164L209.64 164L72.36 164z" /></clipPath><clipPath id="19"><path d="M210.12 212.24L373.799 212.24L373.799 212.24L373.799 164L373.799 164L210.12 164z" /></clipPath><clipPath id="20"><path d="M210.12 212.24L373.799 212.24L373.799 212.24L373.799 164L373.799 164L210.12 164z" /></clipPath><clipPath id="21"><path d="M374.52 212.24L538.32 212.24L538.32 212.24L538.32 164L538.32 164L374.52 164z" /></clipPath><clipPath id="22"><path d="M374.52 212.24L538.32 212.24L538.32 212.24L538.32 164L538.32 164L374.52 164z" /></clipPath><clipPath id="23"><path d="M374.52 212.24L538.32 212.24L538.32 212.24L538.32 164L538.32 164L374.52 164z" /></clipPath><clipPath id="24"><path d="M374.52 212.24L538.32 212.24L538.32 212.24L538.32 164L538.32 164L374.52 164z" /></clipPath><clipPath id="25"><path d="M374.52 212.24L538.32 212.24L538.32 212.24L538.32 164L538.32 164L374.52 164z" /></clipPath><clipPath id="26"><path d="M374.52 212.24L538.32 212.24L538.32 212.24L538.32 164L538.32 164L374.52 164z" /></clipPath><clipPath id="27"><path d="M374.52 212.24L538.32 212.24L538.32 212.24L538.32 164L538.32 164L374.52 164z" /></clipPath><clipPath id="28"><path d="M45.96 269.24L538.44 269.24L538.44 269.24L538.44 248.6L538.44 248.6L45.96 248.6z" /></clipPath><clipPath id="29"><path d="M45.96 269.24L538.44 269.24L538.44 269.24L538.44 248.6L538.44 248.6L45.96 248.6z" /></clipPath><clipPath id="30"><path d="M45.96 291.08L538.44 291.08L538.44 291.08L538.44 269.24L538.44 269.24L45.96 269.24z" /></clipPath><clipPath id="31"><path d="M45.96 291.08L538.44 291.08L538.44 291.08L538.44 269.24L538.44 269.24L45.96 269.24z" /></clipPath><clipPath id="32"><path d="M45.96 291.08L538.44 291.08L538.44 291.08L538.44 269.24L538.44 269.24L45.96 269.24z" /></clipPath><clipPath id="33"><path d="M45.96 291.08L538.44 291.08L538.44 291.08L538.44 269.24L538.44 269.24L45.96 269.24z" /></clipPath><clipPath id="34"><path d="M45.96 291.08L538.44 291.08L538.44 291.08L538.44 269.24L538.44 269.24L45.96 269.24z" /></clipPath><clipPath id="35"><path d="M45.96 291.08L538.44 291.08L538.44 291.08L538.44 269.24L538.44 269.24L45.96 269.24z" /></clipPath><clipPath id="36"><path d="M46.08 336.08L168.96 336.08L168.96 336.08L168.96 312.199L168.96 312.199L46.08 312.199z" /></clipPath><clipPath id="37"><path d="M168.96 336.08L292.08 336.08L292.08 336.08L292.08 312.199L292.08 312.199L168.96 312.199z" /></clipPath><clipPath id="38"><path d="M168.96 336.08L292.08 336.08L292.08 336.08L292.08 312.199L292.08 312.199L168.96 312.199z" /></clipPath><clipPath id="39"><path d="M168.96 336.08L292.08 336.08L292.08 336.08L292.08 312.199L292.08 312.199L168.96 312.199z" /></clipPath><clipPath id="40"><path d="M292.08 336.08L415.321 336.08L415.321 336.08L415.321 312.199L415.321 312.199L292.08 312.199z" /></clipPath><clipPath id="41"><path d="M292.08 336.08L415.321 336.08L415.321 336.08L415.321 312.199L415.321 312.199L292.08 312.199z" /></clipPath><clipPath id="42"><path d="M292.08 336.08L415.321 336.08L415.321 336.08L415.321 312.199L415.321 312.199L292.08 312.199z" /></clipPath><clipPath id="43"><path d="M415.32 336.08L538.319 336.08L538.319 336.08L538.319 312.199L538.319 312.199L415.32 312.199z" /></clipPath><clipPath id="44"><path d="M415.32 336.08L538.319 336.08L538.319 336.08L538.319 312.199L538.319 312.199L415.32 312.199z" /></clipPath><clipPath id="45"><path d="M415.32 336.08L538.319 336.08L538.319 336.08L538.319 312.199L538.319 312.199L415.32 312.199z" /></clipPath><clipPath id="46"><path d="M45.72 394.88L292.08 394.88L292.08 394.88L292.08 336.8L292.08 336.8L45.72 336.8z" /></clipPath><clipPath id="47"><path d="M45.72 394.88L292.08 394.88L292.08 394.88L292.08 336.8L292.08 336.8L45.72 336.8z" /></clipPath><clipPath id="48"><path d="M45.72 394.88L292.08 394.88L292.08 394.88L292.08 336.8L292.08 336.8L45.72 336.8z" /></clipPath><clipPath id="49"><path d="M45.72 394.88L292.08 394.88L292.08 394.88L292.08 336.8L292.08 336.8L45.72 336.8z" /></clipPath><clipPath id="50"><path d="M292.08 394.88L538.68 394.88L538.68 394.88L538.68 336.8L538.68 336.8L292.08 336.8z" /></clipPath><clipPath id="51"><path d="M292.08 394.88L538.68 394.88L538.68 394.88L538.68 336.8L538.68 336.8L292.08 336.8z" /></clipPath><clipPath id="52"><path d="M45.36 561.32L538.08 561.32L538.08 561.32L538.08 501.321L538.08 501.321L45.36 501.321z" /></clipPath><clipPath id="53"><path d="M45.36 616.52L539.88 616.52L539.88 616.52L539.88 561.319L539.88 561.319L45.36 561.319z" /></clipPath><clipPath id="54"><path d="M45.36 616.52L539.88 616.52L539.88 616.52L539.88 561.319L539.88 561.319L45.36 561.319z" /></clipPath><clipPath id="55"><path d="M45.36 616.52L539.88 616.52L539.88 616.52L539.88 561.319L539.88 561.319L45.36 561.319z" /></clipPath><clipPath id="56"><path d="M45.36 616.52L539.88 616.52L539.88 616.52L539.88 561.319L539.88 561.319L45.36 561.319z" /></clipPath><clipPath id="57"><path d="M45.36 616.52L539.88 616.52L539.88 616.52L539.88 561.319L539.88 561.319L45.36 561.319z" /></clipPath><clipPath id="58"><path d="M64.2 773.72L552.36 773.72L552.36 773.72L552.36 711.201L552.36 711.201L64.2 711.201z" /></clipPath><clipPath id="59"><path d="M64.2 773.72L552.36 773.72L552.36 773.72L552.36 711.201L552.36 711.201L64.2 711.201z" /></clipPath><clipPath id="60"><path d="M64.2 773.72L552.36 773.72L552.36 773.72L552.36 711.201L552.36 711.201L64.2 711.201z" /></clipPath><clipPath id="61"><path d="M64.2 773.72L552.36 773.72L552.36 773.72L552.36 711.201L552.36 711.201L64.2 711.201z" /></clipPath><clipPath id="62"><path d="M64.2 773.72L552.36 773.72L552.36 773.72L552.36 711.201L552.36 711.201L64.2 711.201z" /></clipPath><clipPath id="63"><path d="M64.2 773.72L552.36 773.72L552.36 773.72L552.36 711.201L552.36 711.201L64.2 711.201z" /></clipPath><clipPath id="64"><path d="M50.586 102.396L101.586 102.396L101.586 102.396L101.586 51.396L101.586 51.396L50.586 51.396z" /></clipPath><clipPath id="65"><path d="M102.24 103.28L109.56 103.28L109.56 103.28L109.56 95.12006L109.56 95.12006L102.24 95.12006z" /></clipPath><clipPath id="66"><path d="M102.24 103.28L109.56 103.28L109.56 103.28L109.56 95.12006L109.56 95.12006L102.24 95.12006z" /></clipPath><clipPath id="67"><path d="M102.24 103.28L109.56 103.28L109.56 103.28L109.56 95.12006L109.56 95.12006L102.24 95.12006z" /></clipPath></defs></svg>